<svg xmlns="http://www.w3.org/2000/svg" viewBox="0 0 101.47 88.95"><defs><style>.cls-1{fill:#dab329;}</style></defs><g id="Layer_2" data-name="Layer 2"><g id="Layer_1-2" data-name="Layer 1"><path class="cls-1" d="M37.45,24a4.39,4.39,0,1,1,4.38-4.39A4.4,4.4,0,0,1,37.45,24Zm0-6.07a1.69,1.69,0,1,0,1.69,1.68A1.69,1.69,0,0,0,37.45,17.89Z"/><path class="cls-1" d="M64,24a4.39,4.39,0,1,1,4.39-4.39A4.39,4.39,0,0,1,64,24Zm0-6.07a1.69,1.69,0,1,0,1.69,1.68A1.69,1.69,0,0,0,64,17.89Z"/><path class="cls-1" d="M56.89,68.61H44.78a18.4,18.4,0,0,1-13.34-5.76L22,52.83a6.21,6.21,0,0,1,0-8.51L36.87,28.54H64.59L80,44.23a6.24,6.24,0,0,1,0,8.69L70,63.12A18.46,18.46,0,0,1,56.89,68.61ZM38,31.24,24,46.17A3.51,3.51,0,0,0,24,51L33.4,61a15.7,15.7,0,0,0,11.38,4.91H56.89a15.71,15.71,0,0,0,11.16-4.68l10-10.2a3.52,3.52,0,0,0,0-4.91L63.45,31.24Z"/><rect class="cls-1" x="37.45" y="47.23" width="26.57" height="2.7"/><rect class="cls-1" x="36.1" y="23.69" width="2.7" height="41.89"/><rect class="cls-1" x="62.67" y="23.69" width="2.7" height="41.99"/><path class="cls-1" d="M74.1,89H27.37a4,4,0,0,1-3.47-2L.53,46.48a4,4,0,0,1,0-4L23.9,2a4,4,0,0,1,3.47-2H74.1a4,4,0,0,1,3.47,2l23.36,40.47a4,4,0,0,1,0,4L77.57,87A4,4,0,0,1,74.1,89ZM27.37,1.35a2.65,2.65,0,0,0-2.3,1.33L1.7,43.15a2.69,2.69,0,0,0,0,2.66L25.07,86.27a2.65,2.65,0,0,0,2.3,1.33H74.1a2.65,2.65,0,0,0,2.3-1.33L99.77,45.81a2.69,2.69,0,0,0,0-2.66L76.4,2.68a2.65,2.65,0,0,0-2.3-1.33Z"/></g></g></svg>