<svg width="28" height="26" viewBox="0 0 28 26" fill="none" xmlns="http://www.w3.org/2000/svg">
<path d="M6.17466 26V8.45784H0.344006V26H6.17466ZM3.26008 6.06132C5.29333 6.06132 6.55894 4.71429 6.55894 3.03095C6.52105 1.30964 5.29341 0 3.29867 0C1.30424 0 0 1.30967 0 3.03095C0 4.71437 1.26529 6.06132 3.22202 6.06132H3.2599H3.26008ZM9.4019 26H15.2326V16.2036C15.2326 15.6793 15.2704 15.1556 15.4244 14.7808C15.8459 13.7333 16.8053 12.6483 18.416 12.6483C20.5258 12.6483 21.3699 14.257 21.3699 16.6152V25.9999H27.2002V15.9414C27.2002 10.5531 24.3237 8.046 20.4874 8.046C17.342 8.046 15.961 9.80417 15.1938 11.0017H15.2327V8.45748H9.40203C9.47855 10.1035 9.40203 25.9996 9.40203 25.9996L9.4019 26Z" fill="white"/>
</svg>
