<svg width="177" height="23" viewBox="0 0 177 23" fill="none" xmlns="http://www.w3.org/2000/svg">
<path d="M3.27 3.1L3.24 7H0.09V8.23H3.24L3.18 18.28C3.15 21.01 4.35 22.21 6.78 22.21C7.65 22.21 8.31 22.09 8.79 21.88V20.68C8.16 20.89 7.47 20.98 6.78 20.98C4.95 20.98 4.47 20.17 4.47 18.28L4.53 8.23H8.79V7H4.53L4.56 3.1H3.27ZM12.158 0.0999994V22H13.448V13.39C13.448 10.06 15.278 7.9 17.798 7.9C20.078 7.9 21.488 9.46 21.488 12.31V22H22.778V12.34C22.778 8.95 21.008 6.67 17.858 6.67C16.808 6.67 15.878 6.97 15.038 7.54C14.228 8.11 13.688 8.74 13.448 9.43V0.0999994H12.158ZM32.9995 6.67C30.9595 6.67 29.3095 7.42 28.0495 8.89C26.7895 10.36 26.1595 12.25 26.1595 14.5C26.1595 16.84 26.8195 18.73 28.1095 20.17C29.4295 21.61 31.1095 22.33 33.1495 22.33C36.4195 22.33 38.7595 20.74 39.6295 17.95H38.2195C37.4695 19.96 35.6695 21.1 33.1495 21.1C31.5595 21.1 30.2395 20.53 29.1595 19.42C28.1095 18.31 27.5395 16.81 27.4795 14.98H39.8395V14.08C39.8395 9.37 37.1695 6.67 32.9995 6.67ZM32.9995 7.9C36.3895 7.9 38.5195 10.06 38.5195 13.78H27.4795C27.5695 12.04 28.1395 10.63 29.1295 9.55C30.1495 8.44 31.4395 7.9 32.9995 7.9Z" fill="black"/>
<path d="M43.6158 0.0999994V22H46.7958V13.93C46.7958 11.17 48.0858 9.61 49.9158 9.61C51.5658 9.61 52.4958 10.72 52.4958 12.79V22H55.7058V12.16C55.7058 8.71 53.9358 6.49 50.7858 6.49C48.8958 6.49 47.5758 7.18 46.7958 8.59V0.0999994H43.6158ZM65.2163 6.49C63.5063 6.49 62.1263 7 61.0763 7.99C60.0263 8.98 59.4563 10.21 59.3963 11.74H62.4863C62.4863 10.27 63.6563 9.34 65.2163 9.34C66.8663 9.34 67.7063 10.24 67.7063 12.07V12.76L63.3863 13.54C60.4163 14.11 58.9463 15.58 58.9463 18.01C58.9463 20.68 60.7463 22.33 63.4763 22.33C65.5463 22.33 67.0463 21.55 67.9463 20.02L68.0963 22H70.9163V12.01C70.9163 8.44 68.7863 6.49 65.2163 6.49ZM67.7063 15.7C67.7063 16.63 67.4663 17.41 66.9863 18.1C66.3563 19.09 65.4563 19.57 64.2263 19.57C62.9063 19.57 62.1563 18.91 62.1563 17.86C62.1563 16.87 62.7863 16.21 64.0763 15.94L67.7063 15.16V15.7ZM82.1334 6.49C80.1834 6.49 78.7134 7.45 77.9634 8.86L77.7234 6.82H74.9634V22H78.1434V13.93C78.1434 11.17 79.4334 9.61 81.2634 9.61C82.9134 9.61 83.8434 10.72 83.8434 12.79V22H87.0534V12.16C87.0534 8.71 85.2834 6.49 82.1334 6.49ZM101.934 0.0999994V8.71C100.884 7.24 99.2939 6.49 97.1039 6.49C95.0339 6.49 93.3539 7.24 92.0039 8.77C90.6839 10.27 90.0239 12.16 90.0239 14.41C90.0239 16.66 90.6839 18.55 92.0039 20.08C93.3239 21.58 95.0039 22.33 97.0739 22.33C99.2939 22.33 100.974 21.52 102.114 19.87L102.324 22H105.114V0.0999994H101.934ZM97.6739 9.52C98.8139 9.52 99.8039 9.97 100.674 10.87C101.544 11.74 101.964 12.91 101.964 14.38V14.53C101.964 16 101.544 17.17 100.674 18.04C99.8339 18.91 98.8139 19.33 97.6439 19.33C95.0939 19.33 93.3239 17.32 93.3239 14.41C93.3239 11.53 95.1539 9.52 97.6739 9.52ZM109.475 0.0999994V22H112.235L112.475 19.87C113.585 21.52 115.235 22.33 117.485 22.33C119.555 22.33 121.235 21.58 122.555 20.08C123.875 18.55 124.535 16.66 124.535 14.41C124.535 12.16 123.875 10.27 122.555 8.77C121.235 7.24 119.525 6.49 117.455 6.49C115.265 6.49 113.525 7.42 112.655 8.71V0.0999994H109.475ZM116.885 9.52C119.435 9.52 121.265 11.53 121.265 14.41C121.265 17.32 119.465 19.33 116.915 19.33C115.745 19.33 114.725 18.91 113.855 18.04C113.015 17.17 112.595 16 112.595 14.53V14.38C112.595 12.91 113.015 11.74 113.885 10.87C114.755 9.97 115.745 9.52 116.885 9.52ZM129.099 8.71C127.629 10.18 126.909 12.1 126.909 14.41C126.909 16.72 127.629 18.64 129.099 20.11C130.569 21.58 132.429 22.33 134.709 22.33C136.989 22.33 138.849 21.58 140.319 20.11C141.789 18.64 142.539 16.72 142.539 14.41C142.539 12.1 141.789 10.18 140.319 8.71C138.849 7.24 136.989 6.49 134.709 6.49C132.429 6.49 130.569 7.24 129.099 8.71ZM137.979 10.84C138.819 11.77 139.239 12.97 139.239 14.41C139.239 15.85 138.819 17.05 137.979 17.98C137.169 18.91 136.089 19.39 134.739 19.39C133.389 19.39 132.309 18.91 131.469 17.98C130.629 17.05 130.209 15.85 130.209 14.41C130.209 12.97 130.629 11.77 131.469 10.84C132.309 9.91 133.389 9.43 134.739 9.43C136.089 9.43 137.169 9.91 137.979 10.84ZM147.087 8.71C145.617 10.18 144.897 12.1 144.897 14.41C144.897 16.72 145.617 18.64 147.087 20.11C148.557 21.58 150.417 22.33 152.697 22.33C154.977 22.33 156.837 21.58 158.307 20.11C159.777 18.64 160.527 16.72 160.527 14.41C160.527 12.1 159.777 10.18 158.307 8.71C156.837 7.24 154.977 6.49 152.697 6.49C150.417 6.49 148.557 7.24 147.087 8.71ZM155.967 10.84C156.807 11.77 157.227 12.97 157.227 14.41C157.227 15.85 156.807 17.05 155.967 17.98C155.157 18.91 154.077 19.39 152.727 19.39C151.377 19.39 150.297 18.91 149.457 17.98C148.617 17.05 148.197 15.85 148.197 14.41C148.197 12.97 148.617 11.77 149.457 10.84C150.297 9.91 151.377 9.43 152.727 9.43C154.077 9.43 155.157 9.91 155.967 10.84ZM163.853 0.0999994V22H167.033V18.1L169.043 15.61L173.123 22H176.753L171.293 13.15L175.973 6.82H172.133L167.033 13.51V0.0999994H163.853Z" fill="#554562"/>
</svg>
