<svg width="932" height="932" viewBox="0 0 932 932" fill="none" xmlns="http://www.w3.org/2000/svg">
<rect width="466" height="466" fill="#1720F8"/>
<path d="M171.037 320H202.348L232.011 213.213H233.769L263.762 320H294.853L336.931 161.467H302.653L278.154 274.736H276.396L246.953 161.467H218.938L190.043 274.736H188.286L163.566 161.467H129.069L171.037 320Z" fill="white"/>
<rect width="466" height="466" transform="translate(0 466)" fill="#9E9E9E"/>
<path d="M167.764 775H199.514V673.596H216.104L192.812 661.841L274.661 775H302.126V616.467H270.376V717.432H253.896L277.078 729.187L195.449 616.467H167.764V775Z" fill="white"/>
<rect width="466" height="466" transform="translate(466)" fill="#2D2D2D"/>
<path d="M672.411 320H705.589V161.467H672.411V320Z" fill="white"/>
<rect width="466" height="466" transform="translate(466 466)" fill="#F42828"/>
<path d="M688.89 779.065C702.074 779.065 713.426 776.978 722.948 772.803C732.542 768.555 739.903 762.622 745.03 755.005C750.23 747.314 752.831 738.232 752.831 727.759V727.649C752.831 715.271 748.985 705.53 741.295 698.425C733.678 691.321 721.483 686.047 704.71 682.605L687.901 679.199C678.6 677.295 671.861 674.731 667.687 671.509C663.585 668.213 661.534 664.001 661.534 658.875V658.765C661.534 654.81 662.669 651.404 664.94 648.547C667.21 645.618 670.396 643.347 674.498 641.736C678.6 640.125 683.36 639.319 688.78 639.319C694.347 639.319 699.217 640.161 703.392 641.846C707.64 643.457 711.009 645.691 713.5 648.547C716.063 651.404 717.674 654.736 718.333 658.545L718.553 659.863H749.754L749.645 658.435C748.985 649.573 746.166 641.699 741.185 634.814C736.205 627.856 729.283 622.4 720.421 618.445C711.632 614.417 701.085 612.402 688.78 612.402C677.062 612.402 666.661 614.453 657.579 618.555C648.497 622.583 641.356 628.259 636.156 635.583C630.956 642.908 628.355 651.477 628.355 661.292V661.401C628.355 673.413 632.091 683.264 639.562 690.955C647.032 698.645 659.007 704.175 675.487 707.544L692.186 710.95C702.074 713 709.105 715.601 713.28 718.75C717.528 721.899 719.652 726.074 719.652 731.274V731.384C719.652 735.413 718.37 739.001 715.807 742.151C713.316 745.227 709.837 747.644 705.37 749.402C700.902 751.16 695.702 752.039 689.769 752.039C683.617 752.039 678.16 751.196 673.399 749.512C668.639 747.827 664.83 745.52 661.974 742.59C659.19 739.587 657.579 736.108 657.14 732.153L657.03 731.055H625.06L625.169 732.812C625.829 742.188 628.795 750.354 634.068 757.312C639.415 764.197 646.739 769.543 656.041 773.352C665.343 777.161 676.292 779.065 688.89 779.065Z" fill="white"/>
</svg>
